<svg width="311" height="147" viewBox="0 0 311 147" fill="none" xmlns="http://www.w3.org/2000/svg">
<path d="M78.9113 71.6958C80.2808 71.6958 81.5015 71.8744 82.5733 72.2317C83.6451 72.5294 84.181 72.708 84.181 72.7676V87.6834H78.4647C74.773 87.6834 72.0935 88.6361 70.4262 90.5416C68.8185 92.447 68.0147 95.2753 68.0147 99.0266V120.299H50.2407V72.8569H64.7993L65.9604 80.0022C67.0322 77.2632 68.7292 75.2089 71.0515 73.8394C73.3737 72.4103 75.9936 71.6958 78.9113 71.6958Z" fill="url(#paint0_linear_411_4704)"/>
<path d="M123.741 119.368L122.218 112.871C120.373 115.431 117.931 117.456 114.894 118.944C111.917 120.373 108.468 120.299 105.133 120.299C99.6551 120.299 95.8403 119.569 93.1012 116.533C90.3622 113.496 88.9927 109.119 88.9927 103.403V72.8569H106.767V101.26C106.767 103.284 107.273 104.922 108.285 106.172C109.357 107.363 110.845 107.958 112.751 107.958C114.954 107.958 116.74 107.244 118.11 105.815C119.479 104.386 120.164 102.629 120.164 100.545V72.8569H137.938V119.368H123.741Z" fill="url(#paint1_linear_411_4704)"/>
<path d="M169.407 71.7851C178.04 71.7851 184.62 73.8096 189.145 77.8586C193.73 81.9076 196.023 88.1002 196.023 96.4364V99.4732H160.654C160.654 102.867 161.398 105.428 162.886 107.154C164.435 108.881 166.846 109.745 170.121 109.745C173.098 109.745 175.272 109.119 176.641 107.869C178.07 106.619 178.785 104.951 178.785 102.867H196.023C196.023 108.583 193.85 113.049 189.503 116.265C185.156 119.48 178.815 121.088 170.478 121.088C161.725 121.088 154.937 119.063 150.114 115.014C145.291 110.906 142.88 104.713 142.88 96.4364C142.88 88.3384 145.232 82.2054 149.936 78.0373C154.64 73.8692 161.13 71.7851 169.407 71.7851ZM170.121 83.1283C164.524 83.1283 161.398 85.778 160.743 91.0775H178.07C178.07 88.6361 177.356 86.7009 175.927 85.2719C174.557 83.8428 172.622 83.1283 170.121 83.1283Z" fill="url(#paint2_linear_411_4704)"/>
<path d="M233.743 72.8569H254.465L237.048 91.8813L254.911 120.016H234.726L224.812 103.85L218.649 109.834V120.016H200.875V55.1722H218.649V90.8988L233.743 72.8569Z" fill="url(#paint3_linear_411_4704)"/>
<path d="M280.038 71.7851C287.243 71.7851 293.108 73.0058 297.634 75.4471C302.159 77.8288 304.422 81.729 304.422 87.1475V105.547C304.422 106.559 304.66 107.393 305.136 108.048C305.613 108.703 306.327 109.03 307.28 109.03H310.495V119.301C310.317 119.421 309.84 119.629 309.066 119.927C308.352 120.165 307.31 120.403 305.94 120.641C304.571 120.939 302.993 121.088 301.206 121.088C297.753 121.088 294.895 120.582 292.632 119.569C290.429 118.498 288.911 117.039 288.077 115.193C285.814 116.979 283.284 118.408 280.485 119.48C277.686 120.552 274.412 121.088 270.66 121.088C259.585 121.088 254.047 116.682 254.047 107.869C254.047 103.284 255.268 99.8007 257.709 97.4189C260.21 94.9776 263.783 93.3104 268.427 92.4172C273.072 91.524 279.145 91.0775 286.648 91.0775V88.7552C286.648 86.9094 285.993 85.5101 284.683 84.5574C283.433 83.6046 281.795 83.1283 279.771 83.1283C277.925 83.1283 276.317 83.4558 274.947 84.1108C273.637 84.7658 272.982 85.8078 272.982 87.2369V87.5941H255.476C255.417 87.2964 255.387 86.8796 255.387 86.3437C255.387 81.8779 257.501 78.335 261.729 75.715C266.016 73.0951 272.119 71.7851 280.038 71.7851ZM286.648 99.4732C281.587 99.4732 277.835 100.039 275.394 101.17C273.012 102.242 271.821 103.701 271.821 105.547C271.821 108.524 273.846 110.013 277.895 110.013C280.217 110.013 282.242 109.387 283.968 108.137C285.755 106.886 286.648 105.338 286.648 103.492V99.4732Z" fill="url(#paint4_linear_411_4704)"/>
<path d="M182.354 129.338L197.616 111.646L197.653 147L182.354 129.338Z" fill="url(#paint5_linear_411_4704)"/>
<path d="M310.747 122.705V136.649H191.744L191.73 123.413L310.747 122.705Z" fill="url(#paint6_linear_411_4704)"/>
<path d="M253.808 40.2866L221.71 80.5732V0L253.808 40.2866Z" fill="#DE1252"/>
<path d="M23.0741 36.5651H45.4033V120.949H23.0741V36.5651Z" fill="#DE1252"/>
<path d="M0 51.4512V29.1221H222.919V51.4512H0Z" fill="#DE1252"/>
<defs>
<linearGradient id="paint0_linear_411_4704" x1="50.4642" y1="99.5479" x2="310.971" y2="97.6871" gradientUnits="userSpaceOnUse">
<stop stop-color="#DE1252"/>
<stop offset="0.645833" stop-color="#FF4578"/>
</linearGradient>
<linearGradient id="paint1_linear_411_4704" x1="50.4642" y1="99.5479" x2="310.971" y2="97.6871" gradientUnits="userSpaceOnUse">
<stop stop-color="#DE1252"/>
<stop offset="0.645833" stop-color="#FF4578"/>
</linearGradient>
<linearGradient id="paint2_linear_411_4704" x1="50.4642" y1="99.5479" x2="310.971" y2="97.6871" gradientUnits="userSpaceOnUse">
<stop stop-color="#DE1252"/>
<stop offset="0.645833" stop-color="#FF4578"/>
</linearGradient>
<linearGradient id="paint3_linear_411_4704" x1="50.4642" y1="99.5479" x2="310.971" y2="97.6871" gradientUnits="userSpaceOnUse">
<stop stop-color="#DE1252"/>
<stop offset="0.645833" stop-color="#FF4578"/>
</linearGradient>
<linearGradient id="paint4_linear_411_4704" x1="50.4642" y1="99.5479" x2="310.971" y2="97.6871" gradientUnits="userSpaceOnUse">
<stop stop-color="#DE1252"/>
<stop offset="0.645833" stop-color="#FF4578"/>
</linearGradient>
<linearGradient id="paint5_linear_411_4704" x1="182.334" y1="129.875" x2="284.353" y2="129.875" gradientUnits="userSpaceOnUse">
<stop stop-color="#FF4578"/>
<stop offset="1" stop-color="#FF4578"/>
</linearGradient>
<linearGradient id="paint6_linear_411_4704" x1="182.334" y1="129.875" x2="284.353" y2="129.875" gradientUnits="userSpaceOnUse">
<stop stop-color="#FF4578"/>
<stop offset="1" stop-color="#FF4578"/>
</linearGradient>
</defs>
</svg>
