<svg width="167" height="79" viewBox="0 0 167 79" fill="none" xmlns="http://www.w3.org/2000/svg">
<path d="M42.408 38.5304C43.144 38.5304 43.8 38.6264 44.376 38.8184C44.952 38.9784 45.24 39.0744 45.24 39.1064V47.1224H42.168C40.184 47.1224 38.744 47.6344 37.848 48.6584C36.984 49.6824 36.552 51.2024 36.552 53.2184V64.6504H27V39.1544H34.824L35.448 42.9944C36.024 41.5224 36.936 40.4184 38.184 39.6824C39.432 38.9144 40.84 38.5304 42.408 38.5304Z" fill="url(#paint0_linear_180_3145)"/>
<path d="M66.5 64.1504L65.6819 60.6584C64.6899 62.0344 63.3779 63.1224 61.7459 63.9224C60.1459 64.6904 58.292 64.6504 56.5 64.6504C53.556 64.6504 51.5059 64.2584 50.0339 62.6264C48.5619 60.9944 47.8259 58.6424 47.8259 55.5704V39.1544H57.3779V54.4184C57.3779 55.5064 57.6499 56.3864 58.1939 57.0584C58.7699 57.6984 59.5699 58.0184 60.5939 58.0184C61.7779 58.0184 62.7379 57.6344 63.4739 56.8664C64.2099 56.0984 64.5779 55.1544 64.5779 54.0344V39.1544H74.1299V64.1504H66.5Z" fill="url(#paint1_linear_180_3145)"/>
<path d="M91.0415 38.5784C95.6815 38.5784 99.2175 39.6664 101.649 41.8424C104.113 44.0184 105.346 47.3464 105.346 51.8264V53.4584H86.3375C86.3375 55.2824 86.7375 56.6584 87.5375 57.5864C88.3695 58.5144 89.6655 58.9784 91.4255 58.9784C93.0255 58.9784 94.1935 58.6424 94.9295 57.9704C95.6975 57.2984 96.0815 56.4024 96.0815 55.2824H105.346C105.346 58.3544 104.177 60.7544 101.841 62.4824C99.5055 64.2104 96.0975 65.0744 91.6175 65.0744C86.9135 65.0744 83.2655 63.9864 80.6735 61.8104C78.0815 59.6024 76.7855 56.2744 76.7855 51.8264C76.7855 47.4744 78.0495 44.1784 80.5775 41.9384C83.1055 39.6984 86.5935 38.5784 91.0415 38.5784ZM91.4255 44.6744C88.4175 44.6744 86.7375 46.0984 86.3855 48.9464H95.6975C95.6975 47.6344 95.3135 46.5944 94.5455 45.8264C93.8095 45.0584 92.7695 44.6744 91.4255 44.6744Z" fill="url(#paint2_linear_180_3145)"/>
<path d="M125.617 39.1544H136.753L127.393 49.3784L136.993 64.4984H126.145L120.817 55.8104L117.505 59.0264V64.4984H107.953V29.6504H117.505V48.8504L125.617 39.1544Z" fill="url(#paint3_linear_180_3145)"/>
<path d="M150.497 38.5784C154.369 38.5784 157.521 39.2344 159.953 40.5464C162.385 41.8264 163.601 43.9224 163.601 46.8344V56.7224C163.601 57.2664 163.729 57.7144 163.985 58.0664C164.241 58.4184 164.625 58.5944 165.137 58.5944H166.865V64.1144C166.769 64.1784 166.513 64.2904 166.097 64.4504C165.713 64.5784 165.153 64.7064 164.417 64.8344C163.681 64.9944 162.833 65.0744 161.873 65.0744C160.017 65.0744 158.481 64.8024 157.265 64.2584C156.081 63.6824 155.265 62.8984 154.817 61.9064C153.601 62.8664 152.241 63.6344 150.737 64.2104C149.233 64.7864 147.473 65.0744 145.457 65.0744C139.505 65.0744 136.529 62.7064 136.529 57.9704C136.529 55.5064 137.185 53.6344 138.497 52.3544C139.841 51.0424 141.761 50.1464 144.257 49.6664C146.753 49.1864 150.017 48.9464 154.049 48.9464V47.6984C154.049 46.7064 153.697 45.9544 152.993 45.4424C152.321 44.9304 151.441 44.6744 150.353 44.6744C149.361 44.6744 148.497 44.8504 147.761 45.2024C147.057 45.5544 146.705 46.1144 146.705 46.8824V47.0744H137.297C137.265 46.9144 137.249 46.6904 137.249 46.4024C137.249 44.0024 138.385 42.0984 140.657 40.6904C142.961 39.2824 146.241 38.5784 150.497 38.5784ZM154.049 53.4584C151.329 53.4584 149.313 53.7624 148.001 54.3704C146.721 54.9464 146.081 55.7304 146.081 56.7224C146.081 58.3224 147.169 59.1224 149.345 59.1224C150.593 59.1224 151.681 58.7864 152.609 58.1144C153.569 57.4424 154.049 56.6104 154.049 55.6184V53.4584Z" fill="url(#paint4_linear_180_3145)"/>
<path d="M98 69.508L106.202 60L106.222 79L98 69.508Z" fill="url(#paint5_linear_180_3145)"/>
<path d="M167 65.9438V73.4373H103.046L103.039 66.3239L167 65.9438Z" fill="url(#paint6_linear_180_3145)"/>
<path d="M136.4 21.6506L119.15 43.3013V0L136.4 21.6506Z" fill="#DE1252"/>
<path d="M12.4004 19.6506H24.4004V65H12.4004V19.6506Z" fill="#DE1252"/>
<path d="M0 27.6506V15.6506H119.8V27.6506H0Z" fill="#DE1252"/>
<defs>
<linearGradient id="paint0_linear_180_3145" x1="27.1201" y1="53.4985" x2="167.12" y2="52.4985" gradientUnits="userSpaceOnUse">
<stop stop-color="#DE1252"/>
<stop offset="0.645833" stop-color="#FF4578"/>
</linearGradient>
<linearGradient id="paint1_linear_180_3145" x1="27.1201" y1="53.4985" x2="167.12" y2="52.4985" gradientUnits="userSpaceOnUse">
<stop stop-color="#DE1252"/>
<stop offset="0.645833" stop-color="#FF4578"/>
</linearGradient>
<linearGradient id="paint2_linear_180_3145" x1="27.1201" y1="53.4985" x2="167.12" y2="52.4985" gradientUnits="userSpaceOnUse">
<stop stop-color="#DE1252"/>
<stop offset="0.645833" stop-color="#FF4578"/>
</linearGradient>
<linearGradient id="paint3_linear_180_3145" x1="27.1201" y1="53.4985" x2="167.12" y2="52.4985" gradientUnits="userSpaceOnUse">
<stop stop-color="#DE1252"/>
<stop offset="0.645833" stop-color="#FF4578"/>
</linearGradient>
<linearGradient id="paint4_linear_180_3145" x1="27.1201" y1="53.4985" x2="167.12" y2="52.4985" gradientUnits="userSpaceOnUse">
<stop stop-color="#DE1252"/>
<stop offset="0.645833" stop-color="#FF4578"/>
</linearGradient>
<linearGradient id="paint5_linear_180_3145" x1="97.9887" y1="69.7968" x2="152.816" y2="69.7968" gradientUnits="userSpaceOnUse">
<stop stop-color="#FF4578"/>
<stop offset="1" stop-color="#FF4578"/>
</linearGradient>
<linearGradient id="paint6_linear_180_3145" x1="97.9887" y1="69.7968" x2="152.816" y2="69.7968" gradientUnits="userSpaceOnUse">
<stop stop-color="#FF4578"/>
<stop offset="1" stop-color="#FF4578"/>
</linearGradient>
</defs>
</svg>
